<svg width="129" height="23" viewBox="0 0 129 23" fill="none" xmlns="http://www.w3.org/2000/svg">
<path d="M5.92125 18.48C2.40125 18.48 0.64125 16.824 0.64125 13.512C0.64125 11.16 1.28925 9.224 2.58525 7.704C3.96125 6.088 5.84125 5.28 8.22525 5.28C9.95325 5.28 11.2573 5.68 12.1373 6.48C13.0173 7.28 13.4573 8.52 13.4573 10.2C13.4573 12.76 12.7693 14.784 11.3933 16.272C10.0493 17.744 8.22525 18.48 5.92125 18.48ZM6.54525 8.04C6.35325 8.472 6.17725 9.016 6.01725 9.672C5.87325 10.312 5.70525 11.144 5.51325 12.168C5.32125 13.192 5.22525 14.336 5.22525 15.6C5.22525 16.016 5.28925 16.36 5.41725 16.632C5.56125 16.904 5.81725 17.04 6.18525 17.04C6.55325 17.04 6.84925 16.952 7.07325 16.776C7.31325 16.6 7.52125 16.304 7.69725 15.888C8.01725 15.152 8.30525 14.104 8.56125 12.744C8.81725 11.368 8.95325 10.384 8.96925 9.792C9.00125 9.2 9.01725 8.688 9.01725 8.256C9.01725 7.808 8.95325 7.44 8.82525 7.152C8.69725 6.864 8.44925 6.72 8.08125 6.72C7.72925 6.72 7.43325 6.832 7.19325 7.056C6.95325 7.28 6.73725 7.608 6.54525 8.04ZM22.5729 16.992C21.8049 17.984 20.4689 18.48 18.5649 18.48C17.5729 18.48 16.7169 18.184 15.9969 17.592C15.2769 16.984 14.9169 16.248 14.9169 15.384C14.9169 14.904 14.9409 14.544 14.9889 14.304L16.5969 5.76L21.4689 5.28L19.7169 14.544C19.6529 14.896 19.6209 15.176 19.6209 15.384C19.6209 16.312 19.9009 16.776 20.4609 16.776C21.0849 16.776 21.6209 16.352 22.0689 15.504C22.2129 15.232 22.3169 14.92 22.3809 14.568L24.0849 5.76L28.8129 5.28L27.0369 14.64C26.9889 14.88 26.9649 15.128 26.9649 15.384C26.9649 15.64 27.0369 15.912 27.1809 16.2C27.3249 16.472 27.6289 16.64 28.0929 16.704C27.9969 17.088 27.7809 17.408 27.4449 17.664C26.7409 18.208 26.0049 18.48 25.2369 18.48C24.4849 18.48 23.8849 18.344 23.4369 18.072C22.9889 17.8 22.7009 17.44 22.5729 16.992ZM37.6153 11.256C38.1913 10.232 38.4793 9.2 38.4793 8.16C38.4793 7.472 38.2313 7.128 37.7353 7.128C37.3513 7.128 36.9593 7.456 36.5593 8.112C36.1433 8.768 35.8713 9.52 35.7433 10.368L34.4953 18L29.5273 18.48L31.9753 5.76L35.9353 5.28L35.5033 7.704C36.2873 6.088 37.5593 5.28 39.3193 5.28C40.2473 5.28 40.9593 5.52 41.4553 6C41.9673 6.48 42.2233 7.216 42.2233 8.208C42.2233 9.184 41.8953 9.984 41.2393 10.608C40.5993 11.232 39.7273 11.544 38.6233 11.544C38.1433 11.544 37.8073 11.448 37.6153 11.256ZM57.1869 9.84C56.0349 12.368 55.4589 15.096 55.4589 18.024C55.0269 18.328 54.4909 18.48 53.8509 18.48C53.2269 18.48 52.7149 18.328 52.3149 18.024C51.9149 17.736 51.6749 17.44 51.5949 17.136C51.1949 17.552 50.6669 17.88 50.0109 18.12C49.3709 18.36 48.7069 18.48 48.0189 18.48C47.3309 18.48 46.6829 18.368 46.0749 18.144C45.4829 17.92 44.9549 17.56 44.4909 17.064C43.4669 15.976 42.9549 14.4 42.9549 12.336C42.9549 9.136 43.8109 6.576 45.5229 4.656C47.2829 2.672 49.7229 1.68 52.8429 1.68C55.0029 1.68 56.4669 2.24 57.2349 3.36C57.4749 3.712 57.5949 4.104 57.5949 4.536C57.5949 4.952 57.4989 5.344 57.3069 5.712C57.1309 6.064 56.8989 6.384 56.6109 6.672C55.9229 7.312 55.1549 7.632 54.3069 7.632C53.9709 7.632 53.6429 7.576 53.3229 7.464C53.3869 6.984 53.4189 6.464 53.4189 5.904C53.4189 5.344 53.3949 4.936 53.3469 4.68C53.3149 4.424 53.2509 4.192 53.1549 3.984C52.9469 3.552 52.6109 3.336 52.1469 3.336C51.6989 3.336 51.2189 3.584 50.7069 4.08C50.2109 4.56 49.7629 5.2 49.3629 6C48.4829 7.792 48.0429 9.768 48.0429 11.928C48.0429 12.92 48.2349 13.768 48.6189 14.472C49.0349 15.24 49.6109 15.624 50.3469 15.624C50.6029 15.624 50.8429 15.56 51.0669 15.432C51.3069 15.304 51.4749 15.192 51.5709 15.096L52.3389 10.272L57.1869 9.84ZM59.4009 17.28C59.0329 16.864 58.7609 16.328 58.5849 15.672C58.4249 15.016 58.3449 14.152 58.3449 13.08C58.3449 12.008 58.5289 10.984 58.8969 10.008C59.2649 9.032 59.7849 8.192 60.4569 7.488C61.8329 6.016 63.6569 5.28 65.9289 5.28C66.7449 5.28 67.4489 5.416 68.0409 5.688L72.1449 5.28L70.3689 14.64C70.3209 14.832 70.2969 15.104 70.2969 15.456C70.2969 15.808 70.4009 16.096 70.6089 16.32C70.8329 16.544 71.1049 16.672 71.4249 16.704C71.2649 17.248 70.8889 17.68 70.2969 18C69.7209 18.32 69.1049 18.48 68.4489 18.48C67.7929 18.48 67.2409 18.352 66.7929 18.096C66.3609 17.856 66.0809 17.528 65.9529 17.112C65.6969 17.512 65.2969 17.84 64.7529 18.096C64.2089 18.352 63.5689 18.48 62.8329 18.48C62.1129 18.48 61.4569 18.384 60.8649 18.192C60.2729 18 59.7849 17.696 59.4009 17.28ZM64.4649 7.536C64.2889 7.824 64.1209 8.216 63.9609 8.712C63.8009 9.192 63.5849 10.088 63.3129 11.4C63.0569 12.696 62.9289 13.808 62.9289 14.736C62.9289 15.664 63.0009 16.264 63.1449 16.536C63.2889 16.808 63.4889 16.944 63.7449 16.944C64.2569 16.944 64.6969 16.704 65.0649 16.224C65.4489 15.728 65.7129 15.048 65.8569 14.184L67.1289 7.152C66.7929 6.864 66.4249 6.72 66.0249 6.72C65.6409 6.72 65.3289 6.784 65.0889 6.912C64.8649 7.04 64.6569 7.248 64.4649 7.536ZM79.1753 16.68C78.6793 17.88 77.6393 18.48 76.0553 18.48C75.2553 18.48 74.5993 18.2 74.0873 17.64C73.6713 17.176 73.4633 16.68 73.4633 16.152C73.4633 14.952 73.7433 13.04 74.3033 10.416L76.0553 1.2L80.9273 0.719999L78.5993 12.864C78.3273 14.048 78.1913 14.848 78.1913 15.264C78.1913 16.176 78.5193 16.648 79.1753 16.68ZM86.9565 16.68C86.4605 17.88 85.4205 18.48 83.8365 18.48C83.0365 18.48 82.3805 18.2 81.8685 17.64C81.4525 17.176 81.2445 16.68 81.2445 16.152C81.2445 14.952 81.5245 13.04 82.0845 10.416L83.8365 1.2L88.7085 0.719999L86.3805 12.864C86.1085 14.048 85.9725 14.848 85.9725 15.264C85.9725 16.176 86.3005 16.648 86.9565 16.68ZM98.7218 13.944C99.1218 14.216 99.3218 14.656 99.3218 15.264C99.3218 15.856 99.1698 16.344 98.8658 16.728C98.5618 17.112 98.1618 17.432 97.6658 17.688C96.6418 18.216 95.5778 18.48 94.4738 18.48C93.3698 18.48 92.4898 18.36 91.8338 18.12C91.1938 17.88 90.6578 17.536 90.2258 17.088C89.3778 16.24 88.9538 15.04 88.9538 13.488C88.9538 11.072 89.6098 9.128 90.9218 7.656C92.3298 6.072 94.2578 5.28 96.7058 5.28C98.2258 5.28 99.3618 5.6 100.114 6.24C100.674 6.72 100.954 7.352 100.954 8.136C100.954 10.952 98.5218 12.36 93.6578 12.36C93.5938 12.776 93.5618 13.16 93.5618 13.512C93.5618 14.248 93.7218 14.76 94.0418 15.048C94.3778 15.32 94.8498 15.456 95.4578 15.456C96.0658 15.456 96.6898 15.32 97.3298 15.048C97.9858 14.76 98.4498 14.392 98.7218 13.944ZM93.8258 11.328C94.9618 11.328 95.8578 10.976 96.5138 10.272C97.1698 9.6 97.4978 8.728 97.4978 7.656C97.4978 7.288 97.4258 7.008 97.2818 6.816C97.1538 6.608 96.9538 6.504 96.6818 6.504C96.4098 6.504 96.1538 6.56 95.9138 6.672C95.6898 6.768 95.4578 6.992 95.2178 7.344C94.6258 8.144 94.1618 9.472 93.8258 11.328ZM109.287 11.256C109.863 10.232 110.151 9.2 110.151 8.16C110.151 7.472 109.903 7.128 109.407 7.128C109.023 7.128 108.631 7.456 108.231 8.112C107.815 8.768 107.543 9.52 107.415 10.368L106.167 18L101.199 18.48L103.647 5.76L107.607 5.28L107.175 7.704C107.959 6.088 109.231 5.28 110.991 5.28C111.919 5.28 112.631 5.52 113.127 6C113.639 6.48 113.895 7.216 113.895 8.208C113.895 9.184 113.567 9.984 112.911 10.608C112.271 11.232 111.399 11.544 110.295 11.544C109.815 11.544 109.479 11.448 109.287 11.256ZM121.923 15.288C121.091 16.152 119.915 16.584 118.395 16.584C116.491 16.584 115.339 15.888 114.939 14.496C114.811 14.08 114.747 13.64 114.747 13.176C114.747 12.712 114.795 12.24 114.891 11.76L116.019 5.76L120.891 5.28L119.571 12.264C119.539 12.472 119.499 12.688 119.451 12.912C119.403 13.136 119.379 13.368 119.379 13.608C119.379 13.832 119.419 14.024 119.499 14.184C119.579 14.328 119.675 14.448 119.787 14.544C119.979 14.672 120.243 14.736 120.579 14.736C120.931 14.736 121.251 14.528 121.539 14.112C121.843 13.696 122.067 13.128 122.211 12.408L123.531 5.76L128.259 5.28L126.459 14.712C125.867 17.784 124.963 19.928 123.747 21.144C123.123 21.768 122.403 22.2 121.587 22.44C120.787 22.696 119.867 22.824 118.827 22.824C117.147 22.824 115.827 22.56 114.867 22.032C113.907 21.504 113.427 20.8 113.427 19.92C113.427 19.264 113.675 18.744 114.171 18.36C114.667 17.992 115.299 17.808 116.067 17.808C116.739 17.808 117.331 17.952 117.843 18.24C118.147 18.416 118.371 18.616 118.515 18.84C118.147 19.16 117.963 19.584 117.963 20.112C117.963 20.816 118.283 21.168 118.923 21.168C119.979 21.168 120.811 19.952 121.419 17.52C121.595 16.8 121.763 16.056 121.923 15.288Z" fill="black"/>
</svg>
